{"title":"Imperium 2016 Movies HDRip XviD ESubs New Source +Sample ~ ☻rDX☻","uid":15600019,"size":739106153,"categoryP":"video","categoryS":"movies","magnet":"?xt=urn:btih:1209db995c0ed0fd8aff0df1bab45c9865b81bb2&amp;dn=Imperium+2016+Movies+HDRip+XviD+ESubs+New+Source+%2BSample+%7E+%E2%98%BBrDX%E2%98%BB&amp;tr=udp%3A%2F%2Ftracker.leechers-paradise.org%3A6969&amp;tr=udp%3A%2F%2Fzer0day.ch%3A1337&amp;tr=udp%3A%2F%2Fopen.demonii.com%3A1337&amp;tr=udp%3A%2F%2Ftracker.coppersurfer.tk%3A6969&amp;tr=udp%3A%2F%2Fexodus.desync.com%3A6969","seeders":0,"leechers":1,"uploader":"basicssom","files":3,"time":1471622386,"description":"----------------------------------------------------------------\r\nImperium 2016 English Movies HDRip XviD AAC ESubs New Source with Sample ☻rDX☻\r\n\r\nSCREEN SHOTS &amp; POSTER:\r\n  \nhttp://postimage.co.nr/2016/8/debitcard/index.htm  \nhttp://postimage.co.nr/2016/8/debitcard/1.html  \nhttp://postimage.co.nr/2016/8/debitcard/2.html  \nhttp://postimage.co.nr/2016/8/debitcard/3.html  \nhttp://postimage.co.nr/2016/8/debitcard/4.html  \nhttp://postimage.co.nr/2016/8/debitcard/5.html  \nhttp://postimage.co.nr/2016/8/debitcard/6.html  \nhttp://postimage.co.nr/2016/8/debitcard/7.html  \nhttp://postimage.co.nr/2016/8/debitcard/8.html  \nhttp://postimage.co.nr/2016/8/debitcard/9.html  \nhttp://postimage.co.nr/2016/8/debitcard/10.html\r\n\r\nFormat                                   : Matroska\r\nFormat version                           : Version 4 / Version 2\r\nFile size                                : 693 MiB\r\nDuration                                 : 1 h 45 min\r\nOverall bit rate                         : 921 kb/s\r\nMovie name                               : Imperium 2016 English Movies HDRip XviD AAC ESubs New Source ☻rDX☻\r\n\r\nVideo\r\nID                                       : 1\r\nFormat                                   : MPEG-4 Visual\r\nFormat profile                           : Advanced   \r\nFormat settings, BVOP                    : 2\r\nFormat settings, QPel                    : No\r\nFormat settings, GMC                     : No warppoints\r\nFormat settings, Matrix                  : Default (H.263)\r\nMuxing mode                              : Packed bitstream\r\nCodec ID                                 : V_MS/VFW/FOURCC / XVID\r\nCodec ID/Hint                            : XviD\r\nDuration                                 : 1 h 45 min\r\nBit rate                                 : 790 kb/s\r\nWidth                                    : 640 pixels\r\nHeight                                   : 272 pixels\r\nDisplay aspect ratio                     : 2.35:1\r\nFrame rate mode                          : Constant\r\nFrame rate                               : 23.976 (24000/1001) FPS\r\nColor space                              : YUV\r\nChroma subsampling                       : 4:2:0\r\nBit depth                                : 8 bits\r\nScan type                                : Progressive\r\nCompression mode                         : Lossy\r\nBits/(Pixel*Frame)                       : 0.189\r\nStream size                              : 595 MiB (86%)\r\nTitle                                    : ☻rDX☻\r\nWriting library                          : XviD 64\r\nDefault                                  : Yes\r\nForced                                   : No\r\n\r\nAudio\r\nID                                       : 2\r\nFormat                                   : MPEG Audio\r\nFormat version                           : Version 1\r\nFormat profile                           : Layer 3\r\nMode                                     : Joint stereo\r\nMode extension                           : MS Stereo\r\nCodec ID                                 : A_MPEG/L3\r\nCodec ID/Hint                            : MP3\r\nDuration                                 : 1 h 45 min\r\nBit rate mode                            : Constant\r\nBit rate                                 : 112 kb/s\r\nChannel(s)                               : 2 channels\r\nSampling rate                            : 48.0 kHz\r\nCompression mode                         : Lossy\r\nStream size                              : 84.3 MiB (12%)\r\nTitle                                    : ☻rDX☻\r\nWriting library                          : LAME3.99r\r\nEncoding settings                        : -m j -V 4 -q 3 -lowpass 15.6 -b 112\r\nDefault                                  : Yes\r\nForced                                   : No\r\n\r\nIMDB \nhttp://www.imdb.com/title/tt4781612/","torrent":{"xt":"urn:btih:1209db995c0ed0fd8aff0df1bab45c9865b81bb2","amp;dn":"Imperium+2016+Movies+HDRip+XviD+ESubs+New+Source+%2BSample+%7E+%E2%98%BBrDX%E2%98%BB","amp;tr":["udp%3A%2F%2Ftracker.leechers-paradise.org%3A6969","udp%3A%2F%2Fzer0day.ch%3A1337","udp%3A%2F%2Fopen.demonii.com%3A1337","udp%3A%2F%2Ftracker.coppersurfer.tk%3A6969","udp%3A%2F%2Fexodus.desync.com%3A6969"],"infoHash":"1209db995c0ed0fd8aff0df1bab45c9865b81bb2","infoHashBuffer":{"type":"Buffer","data":[18,9,219,153,92,14,208,253,138,255,13,241,186,180,92,152,101,184,27,178]},"announce":[],"urlList":[]}}